<svg width="14" height="10" viewBox="0 0 14 10" fill="none" xmlns="http://www.w3.org/2000/svg">
<path fill-rule="evenodd" clip-rule="evenodd" d="M1.24429 2.64191L6.5927 8.80523C6.81784 9.06492 7.18157 9.06492 7.4073 8.80523L12.7557 2.64191C13.0814 2.26702 13.0814 1.65708 12.7557 1.28153C12.43 0.906645 11.9013 0.906645 11.5756 1.28153L6.99971 6.55392L2.42496 1.28153C2.09866 0.906645 1.57001 0.906645 1.24429 1.28153C0.91857 1.65708 0.91857 2.26702 1.24429 2.64191Z" fill="#434E6C"/>
<path d="M1.24429 2.64191L6.5927 8.80523C6.81784 9.06492 7.18157 9.06492 7.4073 8.80523L12.7557 2.64191C13.0814 2.26702 13.0814 1.65708 12.7557 1.28153C12.43 0.906645 11.9013 0.906645 11.5756 1.28153L6.99971 6.55392L2.42496 1.28153C2.09866 0.906645 1.57002 0.906645 1.24429 1.28153C0.918569 1.65708 0.918569 2.26702 1.24429 2.64191" stroke="#434E6C" stroke-width="0.5"/>
</svg>
